<?xml version="1.0" encoding="UTF-8" standalone="no"?>
<svg
   xmlns:dc="http://purl.org/dc/elements/1.1/"
   xmlns:cc="http://creativecommons.org/ns#"
   xmlns:rdf="http://www.w3.org/1999/02/22-rdf-syntax-ns#"
   xmlns:svg="http://www.w3.org/2000/svg"
   xmlns="http://www.w3.org/2000/svg"
   xmlns:sodipodi="http://sodipodi.sourceforge.net/DTD/sodipodi-0.dtd"
   xmlns:inkscape="http://www.inkscape.org/namespaces/inkscape"
   version="1.1"
   width="76"
   height="76"
   viewBox="0 0 76.00 76.00"
   enable-background="new 0 0 76.00 76.00"
   xml:space="preserve"
   id="svg2"
   inkscape:version="0.91 r"
   sodipodi:docname="DeselectAll.svg"><metadata
     id="metadata10"><rdf:RDF><cc:Work
         rdf:about=""><dc:format>image/svg+xml</dc:format><dc:type
           rdf:resource="http://purl.org/dc/dcmitype/StillImage" /><dc:title></dc:title></cc:Work></rdf:RDF></metadata><defs
     id="defs8" /><sodipodi:namedview
     pagecolor="#ffffff"
     bordercolor="#666666"
     borderopacity="1"
     objecttolerance="10"
     gridtolerance="10"
     guidetolerance="10"
     inkscape:pageopacity="0"
     inkscape:pageshadow="2"
     inkscape:window-width="640"
     inkscape:window-height="480"
     id="namedview6"
     showgrid="false"
     inkscape:zoom="6.5683196"
     inkscape:cx="28.592722"
     inkscape:cy="40.687502"
     inkscape:current-layer="svg2"
     showguides="true"
     inkscape:guide-bbox="true"><sodipodi:guide
       position="11.526668,51.32312"
       orientation="1,0"
       id="guide4151" /><sodipodi:guide
       position="19.35134,66.38351"
       orientation="0,1"
       id="guide4153" /><sodipodi:guide
       position="24.820197,9.5073975"
       orientation="0,1"
       id="guide4155" /><sodipodi:guide
       position="64.195968,44.760491"
       orientation="1,0"
       id="guide4157" /></sodipodi:namedview><path
     id="path4199"
     d="m 21.128535,19.462801 6.9666,6.570701 12.1916,-13.933101 3.325,2.9291 -15.1207,18.445801 -10.687501,-10.6875 z m -8.304201,-6.9875 24.750001,0 -2.75,3 -19.000001,0 0,20.000001 19.000001,0 0,-7 3,-3.75 0,13.75 -25.000001,0 z"
     inkscape:connector-curvature="0"
     style="fill:#12527f;fill-opacity:1;stroke-width:0.2;stroke-linejoin:round"
     sodipodi:nodetypes="cccccccccccccccccc" /><path
     id="path4230"
     d="m 41.867634,30.052468 c 9.484403,0 17.173048,7.688645 17.173048,17.173048 0,9.484404 -7.688645,17.173049 -17.173048,17.173049 -9.484405,0 -17.173049,-7.688645 -17.173049,-17.173049 0,-9.484403 7.688644,-17.173048 17.173049,-17.173048 z m 0,4.293262 c -2.520282,0 -4.871543,0.723889 -6.85711,1.975081 l 17.761815,17.761814 c 1.251192,-1.985567 1.975081,-4.336828 1.975081,-6.857109 0,-7.113256 -5.766529,-12.879786 -12.879786,-12.879786 z M 28.987846,47.225516 c 0,7.113349 5.766439,12.879787 12.879788,12.879787 2.520281,0 4.871451,-0.723889 6.857017,-1.974991 L 30.962837,40.368589 c -1.251102,1.985476 -1.974991,4.336737 -1.974991,6.856927 z"
     inkscape:connector-curvature="0"
     style="fill:#c01021;fill-opacity:1;stroke-width:0.2;stroke-linejoin:round" /></svg>