<?xml version="1.0" encoding="UTF-8" standalone="no"?>
<svg
   xmlns:dc="http://purl.org/dc/elements/1.1/"
   xmlns:cc="http://creativecommons.org/ns#"
   xmlns:rdf="http://www.w3.org/1999/02/22-rdf-syntax-ns#"
   xmlns:svg="http://www.w3.org/2000/svg"
   xmlns="http://www.w3.org/2000/svg"
   xmlns:sodipodi="http://sodipodi.sourceforge.net/DTD/sodipodi-0.dtd"
   xmlns:inkscape="http://www.inkscape.org/namespaces/inkscape"
   version="1.1"
   width="76"
   height="76"
   viewBox="0 0 76.00 76.00"
   enable-background="new 0 0 76.00 76.00"
   xml:space="preserve"
   id="svg2"
   inkscape:version="0.91 r"
   sodipodi:docname="01-04-file-save-as.svg"><metadata
     id="metadata10"><rdf:RDF><cc:Work
         rdf:about=""><dc:format>image/svg+xml</dc:format><dc:type
           rdf:resource="http://purl.org/dc/dcmitype/StillImage" /><dc:title /></cc:Work></rdf:RDF></metadata><defs
     id="defs8" /><sodipodi:namedview
     pagecolor="#ffffff"
     bordercolor="#666666"
     borderopacity="1"
     objecttolerance="10"
     gridtolerance="10"
     guidetolerance="10"
     inkscape:pageopacity="0"
     inkscape:pageshadow="2"
     inkscape:window-width="640"
     inkscape:window-height="480"
     id="namedview6"
     showgrid="false"
     inkscape:zoom="11.364087"
     inkscape:cx="6.9072519"
     inkscape:cy="48.820688"
     inkscape:current-layer="svg2" /><rect
     style="opacity:1;fill:#ffffff;fill-opacity:1;stroke:none;stroke-width:8;stroke-linecap:square;stroke-miterlimit:4;stroke-dasharray:none;stroke-dashoffset:0;stroke-opacity:1"
     id="rect4133"
     width="42.807167"
     height="42.522739"
     x="18.147099"
     y="15.503995" /><path
     d="m 18.402939,18.795431 38.086574,0 0,38.086574 -10.387226,0 0,-12.118505 -17.312119,0 0,12.118505 -10.387229,0 0,-38.086574 z m 13.849674,38.086574 0,-5.193614 6.924781,0 0,5.193614 -6.924781,0 z m -6.924782,-34.624128 0,10.387228 24.236791,0 0,-10.387228 -24.236791,0 z"
     id="path4"
     style="fill:#12527f;fill-opacity:1;stroke-width:0.2;stroke-linejoin:round"
     inkscape:connector-curvature="0" /><g
     id="g4142"
     transform="matrix(1.0273553,-0.50638905,0.41565916,0.84328373,87.457501,-31.735878)"><path
       sodipodi:nodetypes="cccccc"
       inkscape:connector-curvature="0"
       id="path4140"
       d="m -51.263466,20.017721 c 5.033775,2.293108 6.636611,5.475719 8.708354,8.536761 l -16.430048,16.472947 -10.896168,2.273609 2.745491,-11.410947 z"
       style="fill:#ffffff;fill-rule:evenodd;stroke:none;stroke-width:1px;stroke-linecap:butt;stroke-linejoin:miter;stroke-opacity:1" /><path
       id="path4-0"
       d="m -68.532971,41.352679 -1.38,5.980022 5.654048,-1.304763 c -0.71614,-2.154569 -1.916888,-4.0862 -4.274048,-4.675259 z m 9.500284,3.803965 16.552122,-16.552122 c -1.272341,-2.587222 -3.114699,-4.843521 -5.363219,-6.605093 l -15.541017,15.541017 0,3.264084 4.352114,0 0,4.352114 z m -5.440142,-8.160214 15.688554,-15.688552 c -0.761893,-0.525111 -1.563877,-0.996155 -2.400517,-1.407599 l -16.008108,16.008124 0,1.088027 2.720071,0 z"
       style="fill:#c77711;fill-opacity:1;stroke-width:0.2;stroke-linejoin:round"
       inkscape:connector-curvature="0" /></g></svg>