<?xml version="1.0" encoding="UTF-8" standalone="no"?>
<svg
   xmlns:dc="http://purl.org/dc/elements/1.1/"
   xmlns:cc="http://creativecommons.org/ns#"
   xmlns:rdf="http://www.w3.org/1999/02/22-rdf-syntax-ns#"
   xmlns:svg="http://www.w3.org/2000/svg"
   xmlns="http://www.w3.org/2000/svg"
   xmlns:sodipodi="http://sodipodi.sourceforge.net/DTD/sodipodi-0.dtd"
   xmlns:inkscape="http://www.inkscape.org/namespaces/inkscape"
   version="1.1"
   width="76"
   height="76"
   viewBox="0 0 76.00 76.00"
   enable-background="new 0 0 76.00 76.00"
   xml:space="preserve"
   id="svg2"
   inkscape:version="0.91 r"
   sodipodi:docname="01-02-file-open.svg"><metadata
     id="metadata10"><rdf:RDF><cc:Work
         rdf:about=""><dc:format>image/svg+xml</dc:format><dc:type
           rdf:resource="http://purl.org/dc/dcmitype/StillImage" /></cc:Work></rdf:RDF></metadata><defs
     id="defs8" /><sodipodi:namedview
     pagecolor="#ffffff"
     bordercolor="#666666"
     borderopacity="1"
     objecttolerance="10"
     gridtolerance="10"
     guidetolerance="10"
     inkscape:pageopacity="0"
     inkscape:pageshadow="2"
     inkscape:window-width="640"
     inkscape:window-height="480"
     id="namedview6"
     showgrid="false"
     inkscape:zoom="10.855118"
     inkscape:cx="73.320813"
     inkscape:cy="37.115713"
     inkscape:current-layer="svg2" /><path
     style="fill:#f5f5f5;fill-rule:evenodd;stroke:none;stroke-width:1px;stroke-linecap:butt;stroke-linejoin:miter;stroke-opacity:1"
     d="m 18.854038,22.748137 0,29.504411 39.003391,0 8.167685,-20.904955 -9.10319,-0.143924 0.07196,-5.433129 c 0,0 -0.179905,-6.404615 -5.613035,-6.548539 l -13.133061,0.07196 c -2.842497,-0.03598 -2.986421,3.454175 -2.986421,3.454175 z"
     id="path3333"
     inkscape:connector-curvature="0"
     sodipodi:nodetypes="cccccccccc" /><path
     fill="#000000"
     fill-opacity="1"
     stroke-width="0.2"
     stroke-linejoin="round"
     d="M 26.3891,31.6667L 20.5833,45.1783L 20.5833,25.3333L 36.4167,25.3333L 36.4167,23.75C 36.4167,22.0011 37.8344,20.5833 39.5833,20.5833L 50.6666,20.5833C 52.4155,20.5833 55.4166,23.5844 55.4167,25.3333L 55.4167,31.6667L 26.3891,31.6667 Z M 55.4167,50.6667L 44.3333,50.6667L 20.5833,50.6667L 27.8403,33.25L 62.6736,33.25L 55.4167,50.6667 Z "
     id="path4"
     style="fill:#12527f" /></svg>